# xmcd
#
# Track frame offsets: 
#        150
#        17155
#        35645
#        52650
#
# Disc length: 945 seconds
#
# Revision: 13
# Processed by: cddbd v1.5.2PL0 Copyright (c) Steve Scherf et al.
# Submitted via: ExactAudioCopyFreeDBPlugin 1.0
#
DISCID=2703af04
DTITLE=ハートキャッチプリキュア! - Alright! ハートキャッチプリキュア! ／ ハートキャッチ☆パラダイス!
DYEAR=2010
DGENRE=Anime
TTITLE0=池田彩 - Alright! ハートキャッチプリキュア！
TTITLE1=工藤真由 - ハートキャッチ☆パラダイス！
TTITLE2=池田彩 - Alright! ハートキャッチプリキュア！（オリジナル・メロディー入り・カラオケ）
TTITLE3=工藤真由 - ハートキャッチ☆パラダイス！（オリジナル・メロディー入り・カラオケ）
EXTD=YEAR: 2010
EXTT0=
EXTT1=
EXTT2=
EXTT3=
PLAYORDER=
